<svg width="120" height="50" viewBox="0 0 120 50" fill="none" xmlns="http://www.w3.org/2000/svg">
<path d="M6.33301 13.4141L9.4375 22.1797L12.5254 13.4141H15.7959V25.5H13.2974V22.1963L13.5464 16.4937L10.2842 25.5H8.57422L5.32031 16.502L5.56934 22.1963V25.5H3.0791V13.4141H6.33301ZM21.9468 25.666C20.6297 25.666 19.5562 25.262 18.7261 24.4541C17.9015 23.6462 17.4893 22.5698 17.4893 21.2251V20.9927C17.4893 20.0907 17.6636 19.2855 18.0122 18.5771C18.3608 17.8633 18.8534 17.3154 19.4897 16.9336C20.1317 16.5462 20.8621 16.3525 21.6812 16.3525C22.9097 16.3525 23.8753 16.7399 24.5781 17.5146C25.2865 18.2894 25.6406 19.3879 25.6406 20.8101V21.7896H19.9214C19.9989 22.3761 20.2313 22.8465 20.6187 23.2007C21.0116 23.5549 21.5068 23.7319 22.1045 23.7319C23.0286 23.7319 23.7508 23.3971 24.271 22.7275L25.4497 24.0474C25.09 24.5565 24.603 24.9549 23.9888 25.2427C23.3745 25.5249 22.6938 25.666 21.9468 25.666ZM21.6729 18.2949C21.1969 18.2949 20.8096 18.4554 20.5107 18.7764C20.2174 19.0973 20.0293 19.5566 19.9463 20.1543H23.2832V19.9634C23.2721 19.4321 23.1283 19.0226 22.8516 18.7349C22.5749 18.4416 22.182 18.2949 21.6729 18.2949ZM29.542 25.5H27.1348V12.75H29.542V25.5ZM33.8667 17.498C34.5031 16.7344 35.3027 16.3525 36.2656 16.3525C38.2135 16.3525 39.2013 17.4842 39.229 19.7476V25.5H36.8301V19.814C36.8301 19.2993 36.7194 18.9202 36.498 18.6768C36.2767 18.4277 35.9087 18.3032 35.394 18.3032C34.6912 18.3032 34.1821 18.5744 33.8667 19.1167V25.5H31.4678V12.75H33.8667V17.498ZM40.665 20.9263C40.665 20.0353 40.8366 19.2412 41.1797 18.5439C41.5228 17.8467 42.0153 17.3071 42.6572 16.9253C43.3047 16.5435 44.0545 16.3525 44.9067 16.3525C46.1187 16.3525 47.1064 16.7233 47.8701 17.4648C48.6393 18.2064 49.0682 19.2135 49.1567 20.4863L49.1733 21.1006C49.1733 22.4785 48.7887 23.5853 48.0195 24.4209C47.2503 25.251 46.2183 25.666 44.9233 25.666C43.6284 25.666 42.5936 25.251 41.8188 24.4209C41.0496 23.5908 40.665 22.4619 40.665 21.0342V20.9263ZM43.064 21.1006C43.064 21.9528 43.2244 22.6058 43.5454 23.0596C43.8664 23.5078 44.3257 23.7319 44.9233 23.7319C45.5044 23.7319 45.9582 23.5106 46.2847 23.0679C46.6112 22.6196 46.7744 21.9058 46.7744 20.9263C46.7744 20.0907 46.6112 19.4432 46.2847 18.9839C45.9582 18.5246 45.4989 18.2949 44.9067 18.2949C44.3201 18.2949 43.8664 18.5246 43.5454 18.9839C43.2244 19.4377 43.064 20.1432 43.064 21.1006ZM55.6978 18.7681C55.3713 18.7238 55.0835 18.7017 54.8345 18.7017C53.9269 18.7017 53.332 19.0088 53.0498 19.623V25.5H50.6509V16.5186H52.917L52.9834 17.5894C53.4648 16.7648 54.1317 16.3525 54.9839 16.3525C55.2495 16.3525 55.4985 16.3885 55.731 16.4604L55.6978 18.7681Z" fill="black"/>
<g clip-path="url(#clip0)">
<path d="M116.385 41.9092L107.622 33.1465C107.227 32.751 106.69 32.5312 106.128 32.5312H104.695C107.121 29.4287 108.562 25.5264 108.562 21.2812C108.562 11.1826 100.38 3 90.2812 3C80.1826 3 72 11.1826 72 21.2812C72 31.3799 80.1826 39.5625 90.2812 39.5625C94.5264 39.5625 98.4287 38.1211 101.531 35.6953V37.1279C101.531 37.6904 101.751 38.2266 102.146 38.6221L110.909 47.3848C111.735 48.2109 113.071 48.2109 113.889 47.3848L116.376 44.8975C117.202 44.0713 117.202 42.7354 116.385 41.9092ZM90.2812 32.5312C84.0674 32.5312 79.0312 27.5039 79.0312 21.2812C79.0312 15.0674 84.0586 10.0312 90.2812 10.0312C96.4951 10.0312 101.531 15.0586 101.531 21.2812C101.531 27.4951 96.5039 32.5312 90.2812 32.5312Z" fill="#BD00FF"/>
<circle cx="90.25" cy="21.25" r="16.75" fill="white"/>
</g>
<rect x="62" y="14" width="27" height="13" fill="white"/>
<path d="M60.3535 21.2417L59.6064 25.5H57.1743L59.2744 13.4141L63.5078 13.4224C64.8138 13.4224 65.8403 13.7848 66.5874 14.5098C67.3345 15.2347 67.661 16.181 67.5669 17.3486C67.4784 18.5329 66.9831 19.4792 66.0811 20.1875C65.1846 20.8958 64.0391 21.25 62.6445 21.25L60.3535 21.2417ZM60.6938 19.2246L62.7192 19.2412C63.3722 19.2412 63.9146 19.0724 64.3462 18.7349C64.7778 18.3973 65.0352 17.9408 65.1182 17.3652C65.2012 16.7897 65.1071 16.3304 64.8359 15.9873C64.5703 15.6442 64.1746 15.4616 63.6489 15.4395L61.3579 15.4312L60.6938 19.2246ZM73.9004 18.7681C73.5794 18.7127 73.3166 18.6851 73.1118 18.6851C72.2762 18.6629 71.6149 18.9756 71.1279 19.623L70.0903 25.5H67.7495L69.3101 16.5186L71.5098 16.5103L71.2939 17.606C71.8584 16.7593 72.5557 16.3359 73.3857 16.3359C73.6182 16.3359 73.8893 16.3747 74.1992 16.4521L73.9004 18.7681ZM77.9595 25.666C77.1737 25.6605 76.4764 25.4696 75.8677 25.0933C75.2645 24.7114 74.8135 24.1912 74.5146 23.5327C74.2158 22.8687 74.0996 22.1382 74.166 21.3413L74.1909 21.0093C74.2739 20.1349 74.5285 19.3325 74.9546 18.6021C75.3807 17.8716 75.9285 17.3099 76.5981 16.917C77.2677 16.5186 78.0093 16.3304 78.8228 16.3525C79.9793 16.3747 80.8537 16.8008 81.4458 17.6309C82.0435 18.4554 82.2703 19.5013 82.1265 20.7686L81.9937 21.7896H76.4902C76.4681 22.3706 76.6092 22.8354 76.9136 23.1841C77.2179 23.5327 77.633 23.7126 78.1587 23.7236C79.0109 23.7458 79.758 23.4165 80.3999 22.7358L81.4707 24.064C81.1331 24.5731 80.6462 24.9715 80.0098 25.2593C79.3734 25.5415 78.6899 25.6771 77.9595 25.666ZM78.7065 18.2866C78.2749 18.2756 77.8903 18.4111 77.5527 18.6934C77.2207 18.9756 76.9219 19.4653 76.6562 20.1626H79.877L79.9268 19.9468C79.96 19.7254 79.9627 19.5151 79.9351 19.3159C79.8797 18.995 79.7441 18.7459 79.5283 18.5688C79.3125 18.3862 79.0386 18.2922 78.7065 18.2866ZM86.6255 23.7402C87.0571 23.7513 87.4168 23.6351 87.7046 23.3916C87.9924 23.1426 88.1805 22.8133 88.269 22.4038L90.4688 22.3955C90.43 23.0264 90.2308 23.5936 89.8711 24.0972C89.5169 24.6007 89.041 24.9937 88.4434 25.2759C87.8512 25.5581 87.2259 25.6909 86.5674 25.6743C85.4772 25.6577 84.6139 25.2814 83.9775 24.5454C83.3411 23.8094 83.034 22.8299 83.0562 21.6069L83.0811 21.1504L83.0894 21.0591C83.2388 19.5981 83.7313 18.4416 84.5669 17.5894C85.4025 16.7316 86.4346 16.3193 87.6631 16.3525C88.6758 16.3747 89.4782 16.7067 90.0703 17.3486C90.668 17.985 90.9613 18.8262 90.9502 19.8721H88.7671C88.7671 19.3906 88.6619 19.0116 88.4517 18.7349C88.2414 18.4582 87.9259 18.3088 87.5054 18.2866C86.3875 18.2534 85.7096 19.0697 85.4717 20.7354C85.3887 21.3385 85.3582 21.8477 85.3804 22.2627C85.4357 23.2311 85.8507 23.7236 86.6255 23.7402ZM87.1816 25.4336L87.0156 25.9648C87.3587 26.0368 87.616 26.1917 87.7876 26.4297C87.9647 26.6732 88.0532 26.9665 88.0532 27.3096C88.0532 27.946 87.7876 28.4412 87.2563 28.7954C86.7251 29.1496 85.9614 29.3405 84.9653 29.3682L85.0317 27.957C85.646 27.9294 86.0002 27.6859 86.0942 27.2266C86.1606 26.889 85.9227 26.7008 85.3804 26.6621L85.0898 26.6372L85.4468 25.4585L87.1816 25.4336ZM96.5117 16.3525C97.3031 16.3636 97.9837 16.5684 98.5537 16.9668C99.1292 17.3597 99.5498 17.9048 99.8154 18.6021C100.087 19.2938 100.183 20.063 100.106 20.9097C99.9787 22.3374 99.4806 23.494 98.6118 24.3794C97.7485 25.2593 96.6805 25.6882 95.4077 25.666C94.6274 25.6549 93.9523 25.4557 93.3823 25.0684C92.8123 24.6755 92.3918 24.1331 92.1206 23.4414C91.8494 22.7497 91.7526 21.986 91.8301 21.1504C91.974 19.6673 92.4775 18.4886 93.3408 17.6143C94.2041 16.7399 95.2611 16.3193 96.5117 16.3525ZM94.146 22.0054C94.1571 22.5366 94.2816 22.9572 94.5195 23.2671C94.7575 23.5715 95.0923 23.7292 95.5239 23.7402C96.2433 23.7624 96.8078 23.4331 97.2173 22.7524C97.6268 22.0662 97.8177 21.167 97.79 20.0547C97.7679 19.5234 97.6379 19.1001 97.3999 18.7847C97.1675 18.4637 96.8327 18.2977 96.3955 18.2866C95.6982 18.2645 95.1393 18.5938 94.7188 19.2744C94.3037 19.9495 94.1128 20.8599 94.146 22.0054Z" fill="#BD00FF"/>
<defs>
<clipPath id="clip0">
<rect width="45" height="45" fill="white" transform="translate(72 3)"/>
</clipPath>
</defs>
</svg>
